<?xml version="1.0" ?>
<svg baseProfile="full" height="100%" version="1.1" viewBox="227.74218749999997 355.54687499999994 31.710937499999996 39.39843749999999" width="100%" xmlns="http://www.w3.org/2000/svg" xmlns:ev="http://www.w3.org/2001/xml-events" xmlns:xlink="http://www.w3.org/1999/xlink">
	<defs/>
	<path d="M 237.996094 355.226562 L 229.0625 355.226562 C 228.238281 355.226562 227.570312 355.894531 227.570312 356.71875 L 227.570312 389.804688 C 227.570312 390.628906 228.238281 391.292969 229.0625 391.292969 L 237.996094 391.292969 C 238.820312 391.292969 239.484375 390.628906 239.484375 389.804688 L 239.484375 356.71875 C 239.484375 355.894531 238.820312 355.226562 237.996094 355.226562 " style=" stroke:none;fill-rule:nonzero;fill:rgb(22.491455%,22.30835%,22.601318%);fill-opacity:1;"/>
	<path d="M 256.730469 355.226562 L 247.792969 355.226562 C 246.96875 355.226562 246.304688 355.894531 246.304688 356.71875 L 246.304688 389.804688 C 246.304688 390.628906 246.96875 391.292969 247.792969 391.292969 L 256.730469 391.292969 C 257.550781 391.292969 258.21875 390.628906 258.21875 389.804688 L 258.21875 356.71875 C 258.21875 355.894531 257.550781 355.226562 256.730469 355.226562 " style=" stroke:none;fill-rule:nonzero;fill:rgb(22.491455%,22.30835%,22.601318%);fill-opacity:1;"/>
</svg>
