<?xml version="1.0" ?>
<svg baseProfile="full" height="100%" version="1.1" viewBox="111.46874999999999 355.54687499999994 44.20312499999999 39.39843749999999" width="100%" xmlns="http://www.w3.org/2000/svg" xmlns:ev="http://www.w3.org/2001/xml-events" xmlns:xlink="http://www.w3.org/1999/xlink">
	<defs/>
	<path d="M 130.625 370.40625 L 113.488281 354.882812 C 113.058594 354.570312 112.488281 354.53125 112.019531 354.769531 C 111.550781 355.011719 111.253906 355.496094 111.253906 356.027344 L 111.253906 387.082031 C 111.253906 387.613281 111.550781 388.097656 112.019531 388.339844 C 112.488281 388.582031 113.058594 388.539062 113.488281 388.230469 L 130.625 372.703125 C 130.996094 372.4375 131.214844 372.011719 131.214844 371.554688 C 131.214844 371.101562 130.996094 370.671875 130.625 370.40625 " style=" stroke:none;fill-rule:nonzero;fill:rgb(22.491455%,22.30835%,22.601318%);fill-opacity:1;"/>
	<path d="M 153.882812 370.40625 L 136.746094 354.882812 C 136.316406 354.570312 135.746094 354.53125 135.277344 354.769531 C 134.808594 355.011719 134.511719 355.496094 134.511719 356.027344 L 134.511719 387.082031 C 134.511719 387.613281 134.808594 388.097656 135.277344 388.339844 C 135.746094 388.582031 136.316406 388.539062 136.746094 388.230469 L 153.882812 372.703125 C 154.253906 372.4375 154.472656 372.011719 154.472656 371.554688 C 154.472656 371.101562 154.253906 370.671875 153.882812 370.40625 " style=" stroke:none;fill-rule:nonzero;fill:rgb(22.491455%,22.30835%,22.601318%);fill-opacity:1;"/>
</svg>
